HIERARCHY
ROOT SpineBase
{
  OFFSET 0.000000 0.000000 0.000000
  CHANNELS 6 Xposition Yposition Zposition Zrotation Xrotation Yrotation
  JOINT SpineMid
  {
    OFFSET 0.000000 26.646879 0.000000
    CHANNELS 3 Zrotation Xrotation Yrotation
    JOINT SpineShoulder
    {
      OFFSET -0.013387 19.865384 -0.607153
      CHANNELS 3 Zrotation Xrotation Yrotation
      JOINT Neck
      {
        OFFSET -0.001051 6.601656 -0.500247
        CHANNELS 3 Zrotation Xrotation Yrotation
        JOINT Head
        {
          OFFSET -3.621453 12.279469 1.168861
          CHANNELS 3 Zrotation Xrotation Yrotation
          End Site
          {
            OFFSET 0 0 0
          }
        }
      }
      JOINT ShoulderLeft
      {
        OFFSET -11.759181 -3.752733 4.450938
        CHANNELS 3 Zrotation Xrotation Yrotation
        JOINT ElbowLeft
        {
          OFFSET -0.693022 -21.453454 2.379233
          CHANNELS 3 Zrotation Xrotation Yrotation
          JOINT WristLeft
          {
            OFFSET -1.161939 -21.058315 -3.343759
            CHANNELS 3 Zrotation Xrotation Yrotation
            JOINT HandLeft
            {
              OFFSET 0.790283 -6.033244 -1.960037
              CHANNELS 3 Zrotation Xrotation Yrotation
              JOINT HandTipLeft
              {
                OFFSET 0.141003 -6.647232 -2.371174
                CHANNELS 3 Zrotation Xrotation Yrotation
                End Site
                {
                  OFFSET 0 0 0
                }
              }
              JOINT ThumbLeft
              {
                OFFSET -2.891124 0.930750 -1.245443
                CHANNELS 3 Zrotation Xrotation Yrotation
                End Site
                {
                  OFFSET 0 0 0
                }
              }
            }
          }
        }
      }
      JOINT ShoulderRight
      {
        OFFSET 9.810802 -2.833485 -8.657164
        CHANNELS 3 Zrotation Xrotation Yrotation
        JOINT ElbowRight
        {
          OFFSET 4.562794 -21.252025 -3.404391
          CHANNELS 3 Zrotation Xrotation Yrotation
          JOINT WristRight
          {
            OFFSET -1.822307 -20.650404 -6.174768
            CHANNELS 3 Zrotation Xrotation Yrotation
            JOINT HandRight
            {
              OFFSET -1.530122 -6.706729 -1.398178
              CHANNELS 3 Zrotation Xrotation Yrotation
              JOINT HandTipRight
              {
                OFFSET -1.899362 -5.729808 -1.239173
                CHANNELS 3 Zrotation Xrotation Yrotation
                End Site
                {
                  OFFSET 0 0 0
                }
              }
              JOINT ThumbRight
              {
                OFFSET 2.906007 -1.747214 -1.873259
                CHANNELS 3 Zrotation Xrotation Yrotation
                End Site
                {
                  OFFSET 0 0 0
                }
              }
            }
          }
        }
      }
    }
  }
  JOINT HipLeft
  {
    OFFSET -5.132908 0.385615 -0.531662
    CHANNELS 3 Zrotation Xrotation Yrotation
    JOINT KneeLeft
    {
      OFFSET 8.196267 -37.950478 1.780977
      CHANNELS 3 Zrotation Xrotation Yrotation
      JOINT AnkleLeft
      {
        OFFSET 4.789130 -28.175883 4.548483
        CHANNELS 3 Zrotation Xrotation Yrotation
        JOINT FootLeft
        {
          OFFSET 0.863081 -5.218689 -5.226111
          CHANNELS 3 Zrotation Xrotation Yrotation
          End Site
          {
            OFFSET 0 0 0
          }
        }
      }
    }
  }
  JOINT HipRight
  {
    OFFSET 4.814718 1.287897 -5.668010
    CHANNELS 3 Zrotation Xrotation Yrotation
    JOINT KneeRight
    {
      OFFSET 7.075797 -34.348005 -1.107686
      CHANNELS 3 Zrotation Xrotation Yrotation
      JOINT AnkleRight
      {
        OFFSET 4.744824 -31.570146 3.361689
        CHANNELS 3 Zrotation Xrotation Yrotation
        JOINT FootRight
        {
          OFFSET -3.602254 -5.667618 1.019191
          CHANNELS 3 Zrotation Xrotation Yrotation
          End Site
          {
            OFFSET 0 0 0
          }
        }
      }
    }
  }
}
MOTION
Frames: 15
Frame Time: 0.033333
23.905078 75.966880 370.585691 3.307267 0.082069 27.258773 0.557184 0.032379 -27.153092 -0.339443 0.846968 0.119004 5.174853 -7.426996 -2.263682 0.000000 0.000000 0.000000 -45.969748 -31.251426 -16.302626 -145.788816 0.879861 176.466294 32.172990 -2.077413 69.280699 -34.927009 20.614828 -47.124816 0.000000 0.000000 0.000000 0.000000 0.000000 0.000000 -31.055958 52.315458 28.840024 -114.819960 -8.436693 -64.001896 15.174204 2.296205 -10.754457 -2.440355 -32.895558 -12.553045 0.000000 0.000000 0.000000 0.000000 0.000000 0.000000 -7.898769 5.089476 -27.009170 7.850955 -0.382333 0.537511 -8.957639 7.116055 7.994576 0.000000 0.000000 0.000000 -3.571102 6.103128 -26.296788 0.757676 -5.600281 -1.402619 -1.482127 16.306445 -8.988726 0.000000 0.000000 0.000000
23.843162 76.320345 370.703267 3.220655 0.095328 28.351826 0.532699 -0.071101 -28.245078 -0.327249 0.863059 0.117221 6.832088 -7.424808 -2.302107 0.000000 0.000000 0.000000 -49.476116 -27.932454 -16.564142 -149.779847 2.692312 -166.977572 26.383256 -14.438297 57.726583 -20.500192 20.420615 -38.769775 0.000000 0.000000 0.000000 0.000000 0.000000 0.000000 -23.170843 52.266059 23.610351 -114.892912 -9.890829 -60.158445 16.546277 1.792332 -11.475983 -0.827967 -29.258638 -9.253343 0.000000 0.000000 0.000000 0.000000 0.000000 0.000000 -7.681079 5.813690 -27.965473 8.178146 -1.051223 0.478191 -8.794735 6.892560 7.717076 0.000000 0.000000 0.000000 -3.342765 6.163604 -27.387688 1.140092 -5.569095 -1.324101 0.065029 14.091600 -7.717104 0.000000 0.000000 0.000000
23.822483 76.218343 370.746558 3.208471 0.217863 28.483631 0.421241 -0.158180 -28.378121 -0.253823 0.804532 0.121557 8.344411 -7.537970 -2.367738 0.000000 0.000000 0.000000 -50.995311 -26.748140 -16.691754 -153.512955 3.161222 -155.641177 15.804810 -21.292841 43.575860 -2.242606 12.788394 -24.553329 0.000000 0.000000 0.000000 0.000000 0.000000 0.000000 -15.593928 51.411656 18.438412 -114.770145 -11.284275 -56.035908 19.376747 1.861862 -12.385113 0.770372 -25.615283 -6.452782 0.000000 0.000000 0.000000 0.000000 0.000000 0.000000 -7.596648 5.771832 -28.091031 8.091821 -1.192562 0.453182 -9.764224 4.933422 8.408421 0.000000 0.000000 0.000000 -3.323351 6.121406 -27.513698 0.974135 -5.614887 -1.364046 -0.562186 11.547535 -6.113737 0.000000 0.000000 0.000000
23.902860 75.627576 370.689856 3.381463 0.430149 27.793334 0.191016 -0.166253 -27.691938 -0.073310 0.631266 0.138672 9.402519 -7.694665 -2.454243 0.000000 0.000000 0.000000 -50.945927 -28.587232 -17.297364 -157.923698 0.624523 -147.885429 4.212371 -25.855580 29.653388 15.229564 2.607051 -5.181216 0.000000 0.000000 0.000000 0.000000 0.000000 0.000000 -8.794289 50.494429 13.861014 -112.764751 -13.594338 -52.635973 17.831398 -1.757611 -13.073553 3.157828 -20.511653 -4.201112 0.000000 0.000000 0.000000 0.000000 0.000000 0.000000 -7.854428 5.147997 -27.504750 7.739664 -0.688347 0.488365 -9.265006 4.357894 7.908124 0.000000 0.000000 0.000000 -3.757713 6.008904 -26.821510 0.869873 -5.486419 -1.383601 -1.421428 8.602981 -4.402552 0.000000 0.000000 0.000000
23.934889 75.556129 370.681925 3.460255 0.507412 27.297752 0.135692 -0.194002 -27.196118 0.007187 0.557110 0.148619 10.098324 -8.024593 -2.549290 0.000000 0.000000 0.000000 -49.065744 -28.940966 -16.594969 -162.885770 0.102886 -141.714930 -5.498269 -26.222779 18.515880 17.297534 -4.142940 1.142230 0.000000 0.000000 0.000000 0.000000 0.000000 0.000000 -3.762133 48.419821 10.285077 -112.048665 -15.895655 -49.866999 18.189245 -5.155791 -14.469491 6.471781 -15.197249 -3.002487 0.000000 0.000000 0.000000 0.000000 0.000000 0.000000 -7.904451 4.638307 -27.095905 7.314129 -0.046324 0.539160 -12.439022 -7.875134 9.056307 0.000000 0.000000 0.000000 -4.060671 5.868887 -26.342914 0.752288 -4.877585 -1.316865 -0.889299 2.928448 -1.276487 0.000000 0.000000 0.000000
23.973213 75.531339 370.660514 3.529112 0.504688 27.070116 0.143011 -0.189879 -26.966568 0.012053 0.435712 0.155892 10.140293 -8.374562 -2.661176 0.000000 0.000000 0.000000 -44.019457 -29.942431 -14.803478 -167.897985 0.997779 -142.174041 -6.614218 -25.975531 17.023709 21.284385 -4.987930 4.667149 0.000000 0.000000 0.000000 0.000000 0.000000 0.000000 0.270619 46.319294 7.503995 -109.304687 -17.809007 -46.119897 16.191457 -10.588253 -15.729633 9.811365 -10.616228 -3.140815 0.000000 0.000000 0.000000 0.000000 0.000000 0.000000 -8.074956 4.512954 -26.901321 7.376421 0.537493 0.634806 -16.719604 -14.178651 11.882693 0.000000 0.000000 0.000000 -4.365151 5.706285 -26.150807 0.808454 -4.159696 -1.195606 0.015070 -3.340332 2.304632 0.000000 0.000000 0.000000
24.001317 75.607206 370.661985 3.609188 0.510447 27.042134 0.115323 -0.220695 -26.935736 0.056710 0.369859 0.164351 9.509125 -8.879190 -2.792983 0.000000 0.000000 0.000000 -37.695190 -30.815572 -12.422528 -171.498139 3.077878 -147.817720 0.575363 -26.498742 24.724760 19.966661 -1.810851 1.390781 0.000000 0.000000 0.000000 0.000000 0.000000 0.000000 3.453014 43.954910 5.289448 -106.322621 -18.029014 -40.935845 14.270180 -15.083760 -16.800517 14.302683 -3.305334 -4.357169 0.000000 0.000000 0.000000 0.000000 0.000000 0.000000 -8.166123 4.321124 -26.918241 7.330828 1.367888 0.762185 -18.379117 -18.023033 12.334335 0.000000 0.000000 0.000000 -4.650205 5.508289 -26.169448 0.964444 -3.523822 -1.063223 -1.547201 3.601921 -2.402703 0.000000 0.000000 0.000000
24.041039 75.441641 370.643501 3.702940 0.446168 26.894359 0.089085 -0.220947 -26.783941 0.093403 0.293210 0.172691 8.773249 -9.073754 -2.891496 0.000000 0.000000 0.000000 -33.289351 -30.587565 -10.529874 -170.739868 6.354701 -157.881236 21.205661 -24.452410 47.092712 -3.673074 7.911430 -19.290067 0.000000 0.000000 0.000000 0.000000 0.000000 0.000000 7.163764 41.436659 2.929898 -105.197531 -17.467158 -35.824824 11.164933 -13.265492 -14.992531 12.109299 -18.106018 -5.793104 0.000000 0.000000 0.000000 0.000000 0.000000 0.000000 -8.210782 4.106548 -26.818985 7.214068 2.286576 0.898125 -21.871535 -20.123318 14.954863 0.000000 0.000000 0.000000 -4.910774 5.426171 -26.050624 1.307256 -2.902560 -0.909061 -1.634359 3.385436 -2.586290 0.000000 0.000000 0.000000
24.063032 75.373402 370.720272 3.729757 0.390288 26.880701 0.089026 -0.212547 -26.768212 0.141608 0.237757 0.179230 7.841157 -9.430224 -3.000164 0.000000 0.000000 0.000000 -27.753628 -30.087733 -8.235191 -170.246507 10.323463 -168.989681 45.698932 -12.353828 72.568587 -18.669337 25.554837 -34.094012 0.000000 0.000000 0.000000 0.000000 0.000000 0.000000 9.758548 39.099593 1.332536 -106.496422 -15.906998 -31.369477 12.370547 -8.182974 -13.127073 10.492516 -28.408829 -7.861223 0.000000 0.000000 0.000000 0.000000 0.000000 0.000000 -8.111759 4.160112 -26.788842 7.081430 2.394593 0.905363 -25.002785 -14.717829 19.535797 0.000000 0.000000 0.000000 -4.941195 5.422555 -26.045571 1.493692 -2.727285 -0.847167 -2.363687 3.229313 -2.672641 0.000000 0.000000 0.000000
24.091957 75.287384 370.849814 3.709063 0.386158 26.700002 0.078866 -0.212644 -26.588155 0.142167 0.188120 0.179691 7.096933 -10.078688 -3.146643 0.000000 0.000000 0.000000 -22.781842 -29.660921 -6.289658 -167.407530 13.789265 177.176913 67.190658 5.782307 90.742014 -24.030759 44.933756 -44.262163 0.000000 0.000000 0.000000 0.000000 0.000000 0.000000 11.638040 37.189717 0.275934 -107.757077 -13.703177 -26.984359 9.364435 -5.584681 -11.641296 10.902142 -33.793369 -11.342731 0.000000 0.000000 0.000000 0.000000 0.000000 0.000000 -8.009163 4.168819 -26.592850 6.839199 2.017365 0.818543 -22.563334 -4.948176 19.552968 0.000000 0.000000 0.000000 -4.864293 5.489319 -25.846152 1.663211 -2.815252 -0.834504 -2.309372 2.323819 -2.139273 0.000000 0.000000 0.000000
24.120470 75.199337 370.996454 3.663395 0.460158 26.384386 0.049129 -0.241882 -26.275335 0.143023 0.117382 0.179592 6.203976 -10.959338 -3.341943 0.000000 0.000000 0.000000 -19.356322 -29.288725 -4.988536 -160.889218 16.215965 159.995118 87.660048 25.232303 97.444573 -8.222361 58.412595 -61.577161 0.000000 0.000000 0.000000 0.000000 0.000000 0.000000 13.466596 35.447396 -0.663160 -109.452572 -10.475683 -21.929663 4.296359 -3.938674 -10.454450 9.189051 -37.722365 -16.043161 0.000000 0.000000 0.000000 0.000000 0.000000 0.000000 -7.973595 4.085921 -26.276640 6.744165 1.575880 0.737727 -20.827515 -0.904667 18.777774 0.000000 0.000000 0.000000 -4.771666 5.552150 -25.499630 1.868986 -3.018010 -0.837548 -2.711427 0.929984 -1.369780 0.000000 0.000000 0.000000
24.168378 75.063115 371.179084 3.642416 0.512669 26.302364 0.019928 -0.223549 -26.196850 0.143799 0.030781 0.180177 5.446456 -11.772744 -3.533598 0.000000 0.000000 0.000000 -17.196608 -28.911951 -4.175977 -156.040132 17.369088 148.391058 94.757174 35.775532 93.346733 -0.070474 56.406514 -67.735201 0.000000 0.000000 0.000000 0.000000 0.000000 0.000000 14.357002 34.354711 -1.105463 -112.770699 -5.999127 -16.577463 2.980532 -4.256143 -11.800337 6.609277 -38.245385 -19.091883 0.000000 0.000000 0.000000 0.000000 0.000000 0.000000 -7.991022 4.436525 -26.113848 6.966792 0.855446 0.645023 -18.033930 -3.171149 15.591460 0.000000 0.000000 0.000000 -4.649619 5.674538 -25.382594 2.043580 -3.336937 -0.860722 -1.624506 1.159212 -1.245808 0.000000 0.000000 0.000000
24.235574 74.878998 371.385800 3.632018 0.515447 26.228655 -0.031347 -0.161783 -26.127188 0.135867 -0.063172 0.178915 5.007750 -12.265504 -3.665659 0.000000 0.000000 0.000000 -15.564938 -29.018961 -3.609311 -156.342856 16.549950 146.270029 82.967052 32.236091 90.742771 -6.371089 44.119630 -52.480815 0.000000 0.000000 0.000000 0.000000 0.000000 0.000000 13.345686 34.530089 -0.620396 -116.392696 -2.192782 -13.000358 2.217267 -3.912737 -12.960179 4.735336 -36.374529 -21.080404 0.000000 0.000000 0.000000 0.000000 0.000000 0.000000 -7.913651 4.566452 -26.003242 6.790786 0.254145 0.523701 -17.151874 1.099696 15.793744 0.000000 0.000000 0.000000 -4.510090 5.864566 -25.266514 1.548105 -3.917363 -1.041825 -0.666017 1.237650 -0.891563 0.000000 0.000000 0.000000
24.329491 74.671361 371.571500 3.674266 0.496633 26.264862 -0.109273 -0.089598 -26.166194 0.137034 -0.162996 0.179542 4.770918 -12.266290 -3.698495 0.000000 0.000000 0.000000 -14.233387 -29.243791 -3.143782 -161.661234 15.138446 153.142375 65.714387 16.188140 85.679397 -1.340269 30.137937 -38.716222 0.000000 0.000000 0.000000 0.000000 0.000000 0.000000 11.064892 35.670954 0.490816 -118.653647 0.777277 -11.097613 -0.697204 -5.479247 -15.488819 3.996826 -30.882658 -20.339804 0.000000 0.000000 0.000000 0.000000 0.000000 0.000000 -7.870122 4.646549 -26.019959 6.395311 -0.275380 0.377205 -11.897599 7.666191 12.003197 0.000000 0.000000 0.000000 -4.596419 6.045028 -25.270383 1.586266 -3.940098 -1.063053 1.469990 0.031754 0.160598 0.000000 0.000000 0.000000
24.438199 74.504431 371.724502 3.775730 0.448987 26.712885 -0.196719 -0.009738 -26.614728 0.135512 -0.248329 0.181636 4.664639 -11.955879 -3.665058 0.000000 0.000000 0.000000 -12.423194 -28.447051 -2.442979 -164.966843 14.664054 155.732803 55.951790 10.450410 81.278329 -8.017396 18.683504 -29.505683 0.000000 0.000000 0.000000 0.000000 0.000000 0.000000 5.914941 37.418405 3.043362 -120.892088 2.026245 -11.826884 -1.928082 -8.257356 -19.636920 4.763052 -22.747883 -16.057983 0.000000 0.000000 0.000000 0.000000 0.000000 0.000000 -8.001647 5.136834 -26.389466 6.444417 -0.718906 0.288584 -14.973974 -1.172690 13.993483 0.000000 0.000000 0.000000 -4.722278 6.248897 -25.696032 1.564203 -3.749155 -1.059231 5.182183 -2.278284 2.233806 0.000000 0.000000 0.000000
